<svg width="800" height="800" viewBox="0 0 800 800" fill="none" xmlns="http://www.w3.org/2000/svg">
<path d="M518.75 150.2C518.75 -5.95002 281.225 -6.00003 281.25 150.2V481.15C250.375 511.75 231.25 554.175 231.25 601.05C231.25 694.25 306.8 769.8 400 769.8C493.2 769.8 568.75 694.25 568.75 601.05C568.75 554.175 549.625 511.75 518.75 481.15V150.2ZM400 731.25C327.5 731.25 268.75 672.475 268.75 599.975C268.75 561.15 285.6 526.275 312.375 502.25L312.5 502.15L312.65 501.85C315.9 498.8 318.025 494.6 318.425 489.925V489.85C318.45 489.5 318.6 489.25 318.625 488.9L318.775 488.175V150.175C318.7 148.85 318.65 147.3 318.65 145.725C318.65 103.125 353.175 68.6 395.775 68.6C397.275 68.6 398.775 68.65 400.25 68.725H400.05C401.325 68.65 402.8 68.6 404.3 68.6C446.9 68.6 481.425 103.125 481.425 145.725C481.425 147.3 481.375 148.85 481.275 150.375V150.175V488.175L481.425 488.9L481.6 489.8C481.975 494.575 484.125 498.8 487.375 501.85L487.525 502.15C514.425 526.3 531.275 561.175 531.275 599.975C531.275 672.475 472.5 731.225 400 731.25ZM418.75 534.175V440.05C418.75 429.7 410.35 421.3 400 421.3C389.65 421.3 381.25 429.7 381.25 440.05V534.175C352.15 542.625 331.25 569.025 331.25 600.325C331.25 638.3 362.025 669.075 400 669.075C437.975 669.075 468.75 638.3 468.75 600.325C468.75 569.025 447.85 542.625 419.225 534.3L418.75 534.175ZM662.5 56.25C617.625 56.25 581.25 92.625 581.25 137.5C581.25 182.375 617.625 218.75 662.5 218.75C707.375 218.75 743.75 182.375 743.75 137.5C743.7 92.65 707.35 56.3 662.5 56.25ZM662.5 181.25C638.35 181.25 618.75 161.65 618.75 137.5C618.75 113.35 638.35 93.75 662.5 93.75C686.65 93.75 706.25 113.35 706.25 137.5C706.225 161.65 686.65 181.225 662.5 181.25Z" fill="#01758E"/>
</svg>
